<?xml version="1.0" encoding="UTF-8" standalone="no"?>
<svg width="32" height="32" viewBox="0 0 32 32" fill="none" xmlns="http://www.w3.org/2000/svg">
  <rect width="32" height="32" rx="6" fill="#0A3D62"/>
  <path d="M16 6C10.4772 6 6 10.4772 6 16C6 21.5228 10.4772 26 16 26C21.5228 26 26 21.5228 26 16C26 10.4772 21.5228 6 16 6Z" fill="#3498DB" fill-opacity="0.2"/>
  <circle cx="16" cy="16" r="4" fill="#3498DB"/>
  <circle cx="16" cy="8" r="2" fill="#16A085"/>
  <circle cx="24" cy="16" r="2" fill="#16A085"/>
  <circle cx="16" cy="24" r="2" fill="#16A085"/>
  <circle cx="8" cy="16" r="2" fill="#16A085"/>
  <line x1="16" y1="12" x2="16" y2="8" stroke="#3498DB" stroke-width="1.5"/>
  <line x1="20" y1="16" x2="24" y2="16" stroke="#3498DB" stroke-width="1.5"/>
  <line x1="16" y1="20" x2="16" y2="24" stroke="#3498DB" stroke-width="1.5"/>
  <line x1="12" y1="16" x2="8" y2="16" stroke="#3498DB" stroke-width="1.5"/>
</svg>

